<svg width="100%" height="100%" id="svg" viewBox="0 0 1440 700" xmlns="http://www.w3.org/2000/svg" class="transition duration-300 ease-in-out delay-150"><path d="M 0,700 C 0,700 0,140 0,140 C 139.33333333333331,161.33333333333334 278.66666666666663,182.66666666666669 429,173 C 579.3333333333334,163.33333333333331 740.6666666666667,122.66666666666667 911,112 C 1081.3333333333333,101.33333333333333 1260.6666666666665,120.66666666666666 1440,140 C 1440,140 1440,700 1440,700 Z" stroke="none" stroke-width="0" fill="#7bdcb544" class="transition-all duration-300 ease-in-out delay-150 path-0" transform="rotate(-180 720 350)"></path><path d="M 0,700 C 0,700 0,280 0,280 C 165.33333333333331,292.93333333333334 330.66666666666663,305.8666666666667 505,294 C 679.3333333333334,282.1333333333333 862.6666666666667,245.46666666666667 1020,239 C 1177.3333333333333,232.53333333333333 1308.6666666666665,256.26666666666665 1440,280 C 1440,280 1440,700 1440,700 Z" stroke="none" stroke-width="0" fill="#7bdcb566" class="transition-all duration-300 ease-in-out delay-150 path-1" transform="rotate(-180 720 350)"></path><path d="M 0,700 C 0,700 0,420 0,420 C 187.46666666666664,402.5333333333333 374.9333333333333,385.06666666666666 553,398 C 731.0666666666667,410.93333333333334 899.7333333333333,454.2666666666667 1046,463 C 1192.2666666666667,471.7333333333333 1316.1333333333332,445.8666666666667 1440,420 C 1440,420 1440,700 1440,700 Z" stroke="none" stroke-width="0" fill="#7bdcb588" class="transition-all duration-300 ease-in-out delay-150 path-2" transform="rotate(-180 720 350)"></path><path d="M 0,700 C 0,700 0,560 0,560 C 192,538.4 384,516.8 545,519 C 706,521.2 836,547.2 980,558 C 1124,568.8 1282,564.4 1440,560 C 1440,560 1440,700 1440,700 Z" stroke="none" stroke-width="0" fill="#7bdcb5ff" class="transition-all duration-300 ease-in-out delay-150 path-3" transform="rotate(-180 720 350)"></path></svg>